<svg xmlns:xlink="http://www.w3.org/1999/xlink" xmlns="http://www.w3.org/2000/svg" class="m-main-menu-logo__icon" viewBox="0 0 128 115" width="128"  height="115" ><g clip-path="url(#clip0_1541_10395)"><path d="M125.451 10.1025C124.051 8.9025 122.151 8.3025 120.351 8.5025L65.9512 15.4025V17.4025V19.4025V65.2025C66.2512 65.0025 66.4512 64.8025 66.6512 64.4025L93.0512 23.6025C93.5512 22.8025 94.3512 22.3025 95.3512 22.2025L114.151 19.7025C116.051 19.4025 117.751 20.9025 117.751 22.9025V95.7025C117.751 97.3025 116.551 98.7025 114.951 98.9025L97.4512 100.903C95.5512 101.103 93.8512 99.6025 93.8512 97.7025V62.7025L66.6512 102.203C66.4512 102.503 66.2512 102.703 66.0512 102.903V111.003V113.003V115.003L123.051 107.903C125.751 107.603 127.751 105.303 127.751 102.603V15.0025C127.651 13.2025 126.851 11.4025 125.451 10.1025Z" fill="#27348b"></path><path d="M6.25 8.40259C4.75 8.20259 3.15 8.70259 2.05 9.70259C0.849999 10.7026 0.25 12.2026 0.25 13.7026V102.402C0.25 105.102 2.25 107.402 4.95 107.702L61.95 114.802V112.802V110.802V102.702C61.75 102.502 61.45 102.302 61.35 102.002L34.05 62.7026V97.7026C34.05 99.6026 32.35 101.102 30.45 100.902L12.95 98.9026C11.35 98.7026 10.15 97.3026 10.15 95.7026V22.9026C10.15 21.0026 11.85 19.5026 13.75 19.7026L32.55 22.2026C33.45 22.3026 34.35 22.8026 34.85 23.6026L61.25 64.4026C61.45 64.7026 61.65 64.9026 61.95 65.2026V19.4026V17.4026V15.4026L6.25 8.40259Z" fill="#27348b"></path><path d="M5.94974 3.70245L61.8497 11.9025C61.8497 11.9025 17.4497 -0.197548 16.3497 0.0024523C16.3497 0.0024523 5.24974 3.60245 5.94974 3.70245Z" fill="#27348b"></path><path d="M121.851 3.70245L65.9512 11.9025C65.9512 11.9025 110.351 -0.197548 111.451 0.0024523C111.451 0.0024523 122.551 3.60245 121.851 3.70245Z" fill="#27348b"></path></g><defs><clipPath id="clip0_1541_10395"><rect width="128" height="115" rx="5" fill="white"></rect></clipPath></defs></svg>